<?xml version="1.0" standalone="no"?><!DOCTYPE svg PUBLIC "-//W3C//DTD SVG 1.1//EN" "http://www.w3.org/Graphics/SVG/1.1/DTD/svg11.dtd"><svg t="1592381279241" class="icon" viewBox="0 0 1024 1024" version="1.1" xmlns="http://www.w3.org/2000/svg" p-id="1238" xmlns:xlink="http://www.w3.org/1999/xlink" width="200" height="200"><defs><style type="text/css"></style></defs><path d="M512 11c-276.7 0-501 224.3-501 501s224.3 501 501 501 501-224.3 501-501S788.7 11 512 11z" fill="#28c445" p-id="1239"></path><path d="M404.253 656.384c-34.361 0-59.392-5.575-91.933-14.905l-93.753 47.331 26.965-79.872c-65.991-46.421-104.903-104.903-104.903-176.469 0-126.293 118.898-222.891 263.737-222.891 128.114 0 242.347 76.117 264.647 183.865-9.33-1.821-17.635-2.731-25.031-2.731-126.293 0-223.801 94.777-223.801 209.010 0 19.456 2.731 37.091 7.395 55.751-7.509 0.91-15.929 0.91-23.325 0.91z" fill="#fff" p-id="1240"></path><path d="M791.552 747.406l18.546 66.901-70.542-39.936c-26.965 5.575-52.907 13.881-79.872 13.881-124.473 0-222.891-85.447-222.891-191.261 0-105.927 98.418-191.374 222.891-191.374 117.987 0 223.801 85.447 223.801 191.374 0 59.392-39.936 112.413-91.933 150.414z" fill="#fff" p-id="1241"></path><path d="M587.207 511.545c-12.971 0-26.055 12.061-26.055 26.965 0 12.061 12.971 24.121 26.055 24.121 19.456 0 33.451-12.061 33.451-24.121 0-14.905-13.881-26.965-33.451-26.965zM501.76 386.162c20.48 0 33.451-12.971 33.451-32.541 0-20.48-12.971-32.541-33.451-32.541-19.456 0-38.115 12.061-38.115 32.541 0.114 19.57 18.659 32.541 38.115 32.541zM317.895 321.195c-19.456 0-39.936 12.061-39.936 32.541 0 19.456 20.48 32.541 39.936 32.541 18.546 0 33.451-12.971 33.451-32.541 0-20.48-14.905-32.541-33.451-32.541zM733.070 511.545c-13.881 0-26.055 12.061-26.055 26.965 0 12.061 12.061 24.121 26.055 24.121 18.546 0 32.541-12.061 32.541-24.121-0.114-14.905-13.995-26.965-32.541-26.965z" fill="#28c445" p-id="1242"></path></svg>